# xmcd
#
# Track frame offsets: 
#        150
#        24021
#        58284
#        76619
#        97929
#        122358
#        143245
#        160939
#        181914
#
# Disc length: 2826 seconds
#
# Revision: 9
# Processed by: cddbd v1.5.2PL0 Copyright (c) Steve Scherf et al.
# Submitted via: ExactAudioCopyFreeDBPlugin 1.0
#
DISCID=600b0809
DTITLE=Various Artist - WhoCares CD1
DYEAR=2012
DGENRE=Heavy Metal
TTITLE0=WhoCares - Out Of My Mind
TTITLE1=Black Sabbath - Zero The Hero
TTITLE2=Ian Gillan feat. Tony Iommi, Ian Paice and Roger Glover - Trashe
TTITLE2=d
TTITLE3=M. Rakintzis feat. Ian Gillan - Get Away
TTITLE4=Tony Iommi and Glenn Hughes - Slip Away
TTITLE5=Gillan - Don't Hold Me Back
TTITLE6=Ian Gillan - She Thinks It's A Crime
TTITLE7=Repo Depo feat. Ian Gillan - Easy Come, Easy Go
TTITLE8=Deep Purple feat. Ronnie James Dio - Smoke On The Water
EXTD=
EXTT0=
EXTT1=
EXTT2=
EXTT3=
EXTT4=
EXTT5=
EXTT6=
EXTT7=
EXTT8=
PLAYORDER=
